<?xml version="1.0" encoding="utf-8"?>
<!-- Generator: Adobe Illustrator 13.0.0, SVG Export Plug-In . SVG Version: 6.00 Build 14948)  -->
<!DOCTYPE svg PUBLIC "-//W3C//DTD SVG 1.1//EN" "http://www.w3.org/Graphics/SVG/1.1/DTD/svg11.dtd">
<svg version="1.1" id="document_copy_1_" xmlns="http://www.w3.org/2000/svg" xmlns:xlink="http://www.w3.org/1999/xlink" x="0px"
	 y="0px" width="20px" height="26px" viewBox="0 0 20 26" enable-background="new 0 0 20 26" xml:space="preserve">
<g id="document_copy">
	<g>
		<path fill-rule="evenodd" clip-rule="evenodd" fill="#00C8CE" d="M6.432,12.142h6.808c0.554,0,1.001-0.448,1.001-1.001
			s-0.447-1.001-1.001-1.001H6.432c-0.553,0-1.001,0.448-1.001,1.001S5.879,12.142,6.432,12.142z M6.432,7.852h6.808
			c0.554,0,1.001-0.447,1.001-1.001c0-0.553-0.447-1.001-1.001-1.001H6.432c-0.553,0-1.001,0.448-1.001,1.001
			C5.431,7.404,5.879,7.852,6.432,7.852z M6.273,16.718h3.38c0.553,0,1.001-0.448,1.001-1.001s-0.448-1.001-1.001-1.001h-3.38
			c-0.553,0-1.001,0.448-1.001,1.001S5.72,16.718,6.273,16.718z M18.58,0.416H1.42c-0.632,0-1.144,0.512-1.144,1.144V24.44
			c0,0.631,0.512,1.144,1.144,1.144h17.16c0.632,0,1.145-0.513,1.145-1.144V1.56C19.725,0.928,19.212,0.416,18.58,0.416z
			 M17.436,23.296H2.564V2.704h14.872V23.296z"/>
	</g>
</g>
</svg>
