<?xml version="1.0" encoding="utf-8"?>
<!-- Generator: Adobe Illustrator 13.0.0, SVG Export Plug-In . SVG Version: 6.00 Build 14948)  -->
<!DOCTYPE svg PUBLIC "-//W3C//DTD SVG 1.1//EN" "http://www.w3.org/Graphics/SVG/1.1/DTD/svg11.dtd">
<svg version="1.1" id="cross_1_" xmlns="http://www.w3.org/2000/svg" xmlns:xlink="http://www.w3.org/1999/xlink" x="0px" y="0px"
	 width="20px" height="20px" viewBox="0 0 20 20" enable-background="new 0 0 20 20" xml:space="preserve">
<g id="cross">
	<g>
		<path fill-rule="evenodd" clip-rule="evenodd" fill="#FFFFFF" d="M12.43,9.487l7.045-6.695c0.677-0.643,0.677-1.684,0-2.326
			c-0.676-0.643-1.771-0.643-2.447,0L9.981,7.161L2.935,0.466c-0.676-0.643-1.772-0.643-2.448,0c-0.676,0.643-0.676,1.684,0,2.326
			l7.046,6.695l-7.046,6.695c-0.676,0.643-0.676,1.685,0,2.326c0.338,0.321,0.781,0.482,1.224,0.482
			c0.443,0,0.886-0.161,1.224-0.482l7.046-6.695l7.046,6.695c0.338,0.321,0.781,0.482,1.224,0.482c0.443,0,0.886-0.161,1.224-0.482
			c0.677-0.642,0.677-1.684,0-2.326L12.43,9.487z"/>
	</g>
</g>
</svg>
