<?xml version="1.0" encoding="utf-8"?>
<!-- Generator: Adobe Illustrator 13.0.0, SVG Export Plug-In . SVG Version: 6.00 Build 14948)  -->
<!DOCTYPE svg PUBLIC "-//W3C//DTD SVG 1.1//EN" "http://www.w3.org/Graphics/SVG/1.1/DTD/svg11.dtd">
<svg version="1.1" id="Selected_1_" xmlns="http://www.w3.org/2000/svg" xmlns:xlink="http://www.w3.org/1999/xlink" x="0px"
	 y="0px" width="20px" height="20px" viewBox="0 0 20 20" enable-background="new 0 0 20 20" xml:space="preserve">
<g id="photo-group_copy">
	<g>
		<path fill-rule="evenodd" clip-rule="evenodd" fill="#00C8CE" d="M19.891,5.012c-0.096-0.143-0.245-0.241-0.416-0.274L5.701,2.017
			C5.351,1.947,5.01,2.165,4.933,2.505l-0.448,3.31l0.833,0.032c1.014,0.014,2.106,0.06,3.187,0.122l7.648,0.292l0.051,8.547
			l1.709,0.447l2.073-9.761C20.021,5.327,19.986,5.153,19.891,5.012z M4.727,5.841c-2.19,0-3.856,0-3.856,0
			c-0.481,0-0.872,0.382-0.872,0.853v10.445c0,0.471,0.391,0.853,0.872,0.853h14.168c0.482,0,0.873-0.382,0.873-0.853
			c0,0,0-0.972,0-2.322c0-3.077,0-8.123,0-8.123c0-0.471-0.873-0.185-0.873-0.185s-3.186-0.347-6.535-0.541L5.317,5.846
			C5.118,5.844,4.919,5.841,4.727,5.841z"/>
	</g>
</g>
<g id="photo-group_copy_2">
	<g>
		<path fill-rule="evenodd" clip-rule="evenodd" fill="#00A5AA" d="M10.326,11.015c0.739,0,1.34-0.584,1.34-1.303
			c0-0.718-0.601-1.303-1.34-1.303c-0.739,0-1.34,0.585-1.34,1.303C8.986,10.431,9.587,11.015,10.326,11.015z M19.891,5.012
			c-0.096-0.143-0.245-0.241-0.416-0.274L5.701,2.017C5.351,1.947,5.01,2.165,4.933,2.505L4.484,4.478
			C4.406,4.822,4.629,5.164,4.981,5.24C5.334,5.317,5.683,5.1,5.761,4.755l0.309-1.36l12.501,2.469l-1.938,9.132
			c-0.074,0.346,0.153,0.685,0.507,0.756c0.044,0.009,0.089,0.014,0.134,0.014c0.303,0,0.575-0.208,0.639-0.51l2.073-9.761
			C20.021,5.327,19.986,5.153,19.891,5.012z M15.039,5.841H0.871c-0.481,0-0.872,0.382-0.872,0.853v10.445
			c0,0.471,0.391,0.853,0.872,0.853h14.168c0.482,0,0.873-0.382,0.873-0.853V6.693C15.912,6.223,15.521,5.841,15.039,5.841z
			 M13.949,16.285H1.743v-1.542l4.146-3.299l4.212,3.595c0.285,0.246,0.691,0.251,0.98,0.01l1.648-1.45l1.219,1.135V16.285z
			 M13.949,12.769l-0.726-0.717c-0.285-0.239-0.601-0.239-0.886-0.002l-1.732,1.442L6.458,9.904
			C6.176,9.659,5.717,9.652,5.427,9.887l-3.684,2.92V7.546h12.207V12.769z"/>
	</g>
</g>
</svg>
