<?xml version="1.0" encoding="utf-8"?>
<!-- Generator: Adobe Illustrator 13.0.0, SVG Export Plug-In . SVG Version: 6.00 Build 14948)  -->
<!DOCTYPE svg PUBLIC "-//W3C//DTD SVG 1.1//EN" "http://www.w3.org/Graphics/SVG/1.1/DTD/svg11.dtd">
<svg version="1.1" id="Mail_1_" xmlns="http://www.w3.org/2000/svg" xmlns:xlink="http://www.w3.org/1999/xlink" x="0px" y="0px"
	 width="24px" height="14px" viewBox="0 0 24 14" enable-background="new 0 0 24 14" xml:space="preserve">
<g id="Mail">
	<g>
		<path fill-rule="evenodd" clip-rule="evenodd" fill="#00C8CE" d="M23.498,1.229c-0.001-0.037-0.006-0.074-0.012-0.111
			c-0.004-0.028-0.006-0.058-0.012-0.086C23.467,1,23.455,0.969,23.445,0.938s-0.02-0.063-0.033-0.093
			c-0.012-0.026-0.027-0.051-0.041-0.076c-0.018-0.033-0.035-0.065-0.057-0.096c-0.005-0.007-0.008-0.014-0.012-0.02
			c-0.014-0.018-0.03-0.032-0.045-0.049c-0.023-0.027-0.046-0.055-0.072-0.079c-0.023-0.022-0.049-0.042-0.075-0.063
			c-0.024-0.02-0.05-0.039-0.077-0.057c-0.028-0.018-0.058-0.032-0.087-0.047c-0.028-0.015-0.056-0.028-0.086-0.04
			c-0.031-0.012-0.063-0.021-0.096-0.029c-0.03-0.009-0.06-0.017-0.091-0.022c-0.036-0.007-0.073-0.009-0.11-0.012
			C22.542,0.255,22.521,0.25,22.5,0.25h-21c-0.022,0-0.043,0.005-0.064,0.007C1.399,0.259,1.362,0.261,1.326,0.268
			C1.295,0.273,1.265,0.281,1.235,0.29C1.203,0.299,1.171,0.308,1.14,0.319c-0.03,0.012-0.058,0.026-0.086,0.04
			c-0.03,0.015-0.059,0.029-0.087,0.047C0.939,0.424,0.915,0.443,0.89,0.463c-0.026,0.021-0.051,0.04-0.075,0.063
			C0.788,0.55,0.766,0.577,0.742,0.604C0.728,0.621,0.711,0.636,0.697,0.653C0.693,0.659,0.69,0.666,0.686,0.673
			c-0.021,0.03-0.039,0.063-0.058,0.096c-0.014,0.025-0.029,0.05-0.041,0.076C0.574,0.874,0.565,0.906,0.555,0.938
			S0.533,1,0.525,1.031C0.52,1.06,0.517,1.089,0.513,1.117c-0.005,0.037-0.01,0.074-0.011,0.111C0.502,1.235,0.5,1.242,0.5,1.25
			v11.5c0,0.552,0.448,1,1,1h21c0.553,0,1-0.448,1-1V1.25C23.5,1.242,23.498,1.235,23.498,1.229z M19.477,2.25L12,7.801L4.524,2.25
			H19.477z M21.5,11.75h-19V3.238l8.904,6.611c0.177,0.132,0.386,0.197,0.596,0.197c0.209,0,0.419-0.065,0.596-0.197L21.5,3.238
			V11.75z"/>
	</g>
</g>
</svg>
