<?xml version="1.0" encoding="utf-8"?>
<!-- Generator: Adobe Illustrator 13.0.0, SVG Export Plug-In . SVG Version: 6.00 Build 14948)  -->
<!DOCTYPE svg PUBLIC "-//W3C//DTD SVG 1.1//EN" "http://www.w3.org/Graphics/SVG/1.1/DTD/svg11.dtd">
<svg version="1.1" id="card_1_" xmlns="http://www.w3.org/2000/svg" xmlns:xlink="http://www.w3.org/1999/xlink" x="0px" y="0px"
	 width="28px" height="18px" viewBox="0 0 28 18" enable-background="new 0 0 28 18" xml:space="preserve">
<g id="card">
	<g>
		<path fill-rule="evenodd" clip-rule="evenodd" fill="#00C8CE" d="M16.267,12.9h5.694c0.662,0,1.199-0.538,1.199-1.2
			c0-0.663-0.537-1.2-1.199-1.2h-5.694c-0.663,0-1.2,0.537-1.2,1.2C15.066,12.362,15.604,12.9,16.267,12.9z M25.588,0H2.412
			C1.19,0,0.2,0.99,0.2,2.212v13.576C0.2,17.01,1.19,18,2.412,18h23.176c1.222,0,2.212-0.99,2.212-2.212V2.212
			C27.8,0.99,26.81,0,25.588,0z M25.4,15.6H2.6V8.1h22.8V15.6z M25.4,4.5H2.6V2.4h22.8V4.5z"/>
	</g>
</g>
</svg>
