<?xml version="1.0" encoding="utf-8"?>
<!-- Generator: Adobe Illustrator 13.0.0, SVG Export Plug-In . SVG Version: 6.00 Build 14948)  -->
<!DOCTYPE svg PUBLIC "-//W3C//DTD SVG 1.1//EN" "http://www.w3.org/Graphics/SVG/1.1/DTD/svg11.dtd">
<svg version="1.1" id="conversation_1_" xmlns="http://www.w3.org/2000/svg" xmlns:xlink="http://www.w3.org/1999/xlink" x="0px"
	 y="0px" width="38px" height="30px" viewBox="0 0 38 30" enable-background="new 0 0 38 30" xml:space="preserve">
<g id="conversation">
	<g>
		<path fill-rule="evenodd" clip-rule="evenodd" fill="#00C8CE" d="M35.782,5.782H20.2V2.113c0-0.665-0.864-1.518-1.534-1.518H1.813
			c-0.67,0-1.213,0.853-1.213,1.518v10.201c0,0.665,0.543,1.447,1.213,1.447h2.428l3.197,3.462c0.235,0.264,0.568,0.346,0.909,0.346
			c0.144,0,0.21-0.056,0.35-0.108C9.168,17.283,9.4,16.805,9.4,16.305v-2.543h2.4v7.406c0,0.886,0.907,1.771,1.8,1.771h11v4.854
			c0,0.654,0.33,1.242,0.94,1.488c0.196,0.079,0.368,0.117,0.571,0.117c0.43,0,0.834-0.087,1.145-0.405l5.977-6.054h2.55
			c0.894,0,1.618-0.885,1.618-1.771V7.741C37.4,6.854,36.676,5.782,35.782,5.782z M11.8,7.741v3.627H8.346
			C7.676,11.368,7,11.649,7,12.314v0.813l-1.371-1.482c-0.23-0.259-0.495-0.277-0.842-0.277H3V2.989h14.4v2.793h-3.8
			C12.707,5.782,11.8,6.854,11.8,7.741z M34.2,19.746h-1.653c-0.438,0-0.804,0.084-1.108,0.396L27.8,23.83v-2.662
			c0-0.887-0.829-1.422-1.723-1.422H15V8.974h19.2V19.746z M29.805,13.741c0.32,0,0.636-0.129,0.857-0.354
			c0.227-0.225,0.356-0.533,0.356-0.854c0-0.317-0.13-0.626-0.356-0.851c-0.448-0.445-1.262-0.445-1.715,0
			c-0.226,0.225-0.355,0.537-0.355,0.851c0,0.316,0.13,0.63,0.355,0.854C29.174,13.612,29.49,13.741,29.805,13.741z M18.522,13.762
			h7.646c0.67,0,1.214-0.532,1.214-1.197c0-0.664-0.544-1.196-1.214-1.196h-7.646c-0.67,0-1.213,0.532-1.213,1.196
			C17.309,13.229,17.853,13.762,18.522,13.762z"/>
	</g>
</g>
</svg>
