<?xml version="1.0" encoding="utf-8"?>
<!-- Generator: Adobe Illustrator 13.0.0, SVG Export Plug-In . SVG Version: 6.00 Build 14948)  -->
<!DOCTYPE svg PUBLIC "-//W3C//DTD SVG 1.1//EN" "http://www.w3.org/Graphics/SVG/1.1/DTD/svg11.dtd">
<svg version="1.1" id="location_1_" xmlns="http://www.w3.org/2000/svg" xmlns:xlink="http://www.w3.org/1999/xlink" x="0px"
	 y="0px" width="20px" height="28px" viewBox="0 0 20 28" enable-background="new 0 0 20 28" xml:space="preserve">
<g id="location">
	<g>
		<path fill-rule="evenodd" clip-rule="evenodd" fill="#00C8CE" d="M16.734,2.581C15.012,1.046,12.619,0.2,10,0.2
			c-2.62,0-5.011,0.846-6.735,2.381C1.194,4.427,0.1,7.232,0.1,10.694c0,7.541,8.679,16.378,9.048,16.751
			C9.374,27.672,9.68,27.8,10,27.8s0.626-0.128,0.852-0.354c0.369-0.373,9.048-9.21,9.048-16.751
			C19.9,7.232,18.806,4.427,16.734,2.581z M9.999,24.841c-0.811-0.9-2.092-2.4-3.368-4.21C3.928,16.798,2.5,13.362,2.5,10.694
			C2.5,3.184,8.241,2.6,10,2.6c6.959,0,7.5,6.196,7.5,8.095C17.5,15.977,12.127,22.476,9.999,24.841z M10,5.376
			c-2.634,0-4.776,2.177-4.776,4.852c0,2.676,2.143,4.852,4.776,4.852c2.634,0,4.777-2.176,4.777-4.852
			C14.777,7.553,12.635,5.376,10,5.376z M10,12.979c-1.476,0-2.676-1.234-2.676-2.752S8.524,7.476,10,7.476s2.676,1.234,2.676,2.752
			S11.477,12.979,10,12.979z"/>
	</g>
</g>
</svg>
