<?xml version="1.0" encoding="utf-8"?>
<!-- Generator: Adobe Illustrator 13.0.0, SVG Export Plug-In . SVG Version: 6.00 Build 14948)  -->
<!DOCTYPE svg PUBLIC "-//W3C//DTD SVG 1.1//EN" "http://www.w3.org/Graphics/SVG/1.1/DTD/svg11.dtd">
<svg version="1.1" id="exit_1_" xmlns="http://www.w3.org/2000/svg" xmlns:xlink="http://www.w3.org/1999/xlink" x="0px" y="0px"
	 width="29px" height="24px" viewBox="0 0 29 24" enable-background="new 0 0 29 24" xml:space="preserve">
<g id="exit">
	<g>
		<path fill-rule="evenodd" clip-rule="evenodd" fill="#00C8CE" d="M17.801,15.251c-0.668,0-1.209,0.543-1.209,1.214v4.34H3.288
			V3.195h13.304v4.34c0,0.671,0.541,1.214,1.209,1.214s1.209-0.543,1.209-1.214V1.981c0-0.671-0.484-1.215-1.152-1.215H2.079
			c-0.668,0-1.21,0.544-1.21,1.215v20.037c0,0.671,0.542,1.215,1.21,1.215h15.778c0.668,0,1.152-0.544,1.152-1.215v-5.554
			C19.01,15.794,18.469,15.251,17.801,15.251z M28.336,11.104L23.598,6.3c-0.471-0.478-1.236-0.48-1.711-0.009
			s-0.479,1.241-0.008,1.717l2.705,2.743L9.908,10.785C9.24,10.787,8.7,11.332,8.702,12.003c0.001,0.67,0.542,1.211,1.209,1.211
			h0.003L24.57,13.18l-2.691,2.729c-0.471,0.477-0.467,1.246,0.008,1.718c0.236,0.234,0.543,0.352,0.852,0.352
			c0.311,0,0.623-0.12,0.859-0.36l4.738-4.805C28.803,12.34,28.803,11.577,28.336,11.104z"/>
	</g>
</g>
</svg>
