<?xml version="1.0" encoding="utf-8"?>
<!-- Generator: Adobe Illustrator 13.0.0, SVG Export Plug-In . SVG Version: 6.00 Build 14948)  -->
<!DOCTYPE svg PUBLIC "-//W3C//DTD SVG 1.1//EN" "http://www.w3.org/Graphics/SVG/1.1/DTD/svg11.dtd">
<svg version="1.1" id="photo-group_copy_1_" xmlns="http://www.w3.org/2000/svg" xmlns:xlink="http://www.w3.org/1999/xlink"
	 x="0px" y="0px" width="20px" height="20px" viewBox="0 0 20 20" enable-background="new 0 0 20 20" xml:space="preserve">
<g id="photo-group_copy">
	<g>
		<path fill-rule="evenodd" clip-rule="evenodd" fill="#CCCED3" d="M15.039,5.081H0.871c-0.481,0-0.872,0.405-0.872,0.906v11.097
			c0,0.501,0.391,0.906,0.872,0.906h14.168c0.482,0,0.873-0.405,0.873-0.906V5.987C15.912,5.486,15.521,5.081,15.039,5.081z
			 M13.949,16.179H1.743V14.54l4.146-3.505l4.212,3.818c0.285,0.262,0.691,0.267,0.98,0.011l1.648-1.54l1.219,1.204V16.179z
			 M13.949,12.442l-0.726-0.763c-0.285-0.254-0.601-0.254-0.886-0.002l-1.732,1.533L6.458,9.397C6.176,9.139,5.717,9.131,5.427,9.38
			l-3.684,3.102V6.893h12.207V12.442z M10.326,10.578c0.739,0,1.34-0.621,1.34-1.384c0-0.764-0.601-1.385-1.34-1.385
			c-0.739,0-1.34,0.621-1.34,1.385C8.986,9.957,9.587,10.578,10.326,10.578z M19.891,4.2c-0.096-0.151-0.245-0.256-0.416-0.292
			L5.701,1.018C5.351,0.944,5.01,1.175,4.933,1.536L4.484,3.633C4.406,3.999,4.629,4.362,4.981,4.443
			c0.353,0.082,0.702-0.15,0.78-0.517L6.07,2.481l12.501,2.623l-1.938,9.703c-0.074,0.367,0.153,0.727,0.507,0.803
			c0.044,0.01,0.089,0.015,0.134,0.015c0.303,0,0.575-0.221,0.639-0.542l2.073-10.371C20.021,4.535,19.986,4.351,19.891,4.2z"/>
	</g>
</g>
</svg>
